<svg width="800" height="496" viewBox="0 0 800 496" fill="none" xmlns="http://www.w3.org/2000/svg">
<g clip-path="url(#clip0_1_2)">
<path d="M481.584 375.908L472.736 355.495L396.766 174.73C371.678 110.775 309.133 67.5406 238.644 67.5406C143.264 67.5406 65.8687 148.331 65.8687 248.047C65.8687 347.666 143.264 428.505 238.644 428.505C305.234 428.505 363.025 389.186 391.866 331.619L422.597 405.57C379.041 461.08 312.756 496.438 238.645 496.438C107.258 496.441 0.78125 385.322 0.78125 248.048C0.78125 110.808 107.258 -0.440613 238.642 -0.440613C337.777 -0.440613 417.855 54.811 458.55 152.83C461.591 160.431 501.544 257.916 536.416 340.906C557.959 392.244 576.317 426.341 636.066 428.442C694.567 430.512 734.892 393.311 734.892 346.18C734.892 300.164 704.111 289.083 652.353 271.114C559.317 239.105 511.247 206.95 511.247 129.863C511.247 54.6828 560.158 4.54219 639.833 4.54219C691.609 4.54219 729.148 28.6422 755.077 76.6813L704.111 103.822C684.994 75.8391 663.853 64.7594 636.97 64.7594C599.573 64.7594 573.002 91.9172 573.002 127.986C573.002 179.244 616.9 186.958 678.233 207.953C760.836 236.048 799.219 268.155 799.219 348.267C799.219 432.423 730.106 493.725 639.834 493.595C556.65 493.222 512.283 450.764 481.584 375.908Z" fill="white"/>
</g>
<defs>
<clipPath id="clip0_1_2">
<rect width="800" height="496" fill="white"/>
</clipPath>
</defs>
</svg>
